<?xml version="1.0" encoding="UTF-8"?>
<svg version="1.1" xmlns="http://www.w3.org/2000/svg" width="500" height="500">
<path d="M0 0 C165 0 330 0 500 0 C500 165 500 330 500 500 C335 500 170 500 0 500 C0 335 0 170 0 0 Z " fill="#FEFEFE" transform="translate(0,0)"/>
<path d="M0 0 C1.39033723 0.03042603 2.78027755 0.09261861 4.16796875 0.18359375 C5.19760742 0.21163086 5.19760742 0.21163086 6.24804688 0.24023438 C11.71640734 0.43165286 17.14436606 0.88405952 22.35546875 2.62109375 C23.36609375 2.62109375 24.37671875 2.62109375 25.41796875 2.62109375 C28.35546875 2.62109375 28.35546875 2.62109375 30.35546875 3.62109375 C30.35546875 4.28109375 30.35546875 4.94109375 30.35546875 5.62109375 C31.28613159 5.52235962 31.28613159 5.52235962 32.2355957 5.42163086 C35.04573451 5.12728046 37.85678961 4.84282908 40.66796875 4.55859375 C41.64443359 4.45482422 42.62089844 4.35105469 43.62695312 4.24414062 C44.56474609 4.15068359 45.50253906 4.05722656 46.46875 3.9609375 C47.33282471 3.87191162 48.19689941 3.78288574 49.0871582 3.69116211 C51.35546875 3.62109375 51.35546875 3.62109375 54.35546875 4.62109375 C54.35546875 5.94109375 54.35546875 7.26109375 54.35546875 8.62109375 C52.04546875 9.28109375 49.73546875 9.94109375 47.35546875 10.62109375 C50.51535485 12.09570726 53.57550014 12.91338473 56.98046875 13.55859375 C72.19405873 16.45968373 72.19405873 16.45968373 75.35546875 19.62109375 C75.3671875 22.3359375 75.3671875 22.3359375 75.04296875 25.55859375 C74.94371094 26.61949219 74.84445313 27.68039063 74.7421875 28.7734375 C74.35546875 31.62109375 74.35546875 31.62109375 73.35546875 34.62109375 C73.4019993 37.42984703 73.54885848 40.22299972 73.7109375 43.02734375 C73.35546875 45.62109375 73.35546875 45.62109375 71.765625 47.30078125 C68.78635738 48.93285978 65.803403 50.09240861 62.60546875 51.24609375 C61.17559607 51.76772185 59.74592155 52.28989332 58.31640625 52.8125 C57.13836426 53.24006592 57.13836426 53.24006592 55.93652344 53.67626953 C52.06829837 55.092277 48.2158841 56.54964683 44.36181641 58.00366211 C40.27444824 59.54383444 36.18231321 61.07110018 32.08984375 62.59765625 C29.69618209 63.49356962 27.30663359 64.39947504 24.91796875 65.30859375 C23.09265625 65.98921875 23.09265625 65.98921875 21.23046875 66.68359375 C20.21726563 67.06644531 19.2040625 67.44929688 18.16015625 67.84375 C14.91973426 68.74186139 12.70143699 69.08927159 9.35546875 68.62109375 C6.9503888 67.07265795 4.94304841 65.58954377 2.79296875 63.74609375 C1.57129031 62.73709617 0.34860825 61.72931269 -0.875 60.72265625 C-1.4942334 60.20735352 -2.1134668 59.69205078 -2.75146484 59.16113281 C-4.61517184 57.64497809 -6.51430816 56.19868419 -8.4453125 54.76953125 C-9.04593506 54.32335449 -9.64655762 53.87717773 -10.26538086 53.41748047 C-11.41665273 52.56664489 -12.57230465 51.72169783 -13.73266602 50.88330078 C-15.29296875 49.71484375 -15.29296875 49.71484375 -17.64453125 47.62109375 C-17.64453125 46.63109375 -17.64453125 45.64109375 -17.64453125 44.62109375 C-16.98453125 44.62109375 -16.32453125 44.62109375 -15.64453125 44.62109375 C-15.74765625 43.36296875 -15.85078125 42.10484375 -15.95703125 40.80859375 C-16.04404297 39.74705078 -16.04404297 39.74705078 -16.1328125 38.6640625 C-16.45718118 36.51044234 -16.45718118 36.51044234 -18.23828125 35.30859375 C-19.64453125 33.62109375 -19.64453125 33.62109375 -19.5 30.265625 C-19.27957031 29.00105469 -19.05914062 27.73648438 -18.83203125 26.43359375 C-18.61933594 25.16128906 -18.40664062 23.88898438 -18.1875 22.578125 C-18.00832031 21.60230469 -17.82914062 20.62648437 -17.64453125 19.62109375 C-18.63453125 19.29109375 -19.62453125 18.96109375 -20.64453125 18.62109375 C-20.64453125 17.96109375 -20.64453125 17.30109375 -20.64453125 16.62109375 C-16.35453125 15.96109375 -12.06453125 15.30109375 -7.64453125 14.62109375 C-7.72703125 13.42484375 -7.80953125 12.22859375 -7.89453125 10.99609375 C-8.11320338 7.82534781 -7.50341389 6.32117424 -6.1171875 3.375 C-3.64453125 0.62109375 -3.64453125 0.62109375 0 0 Z " fill="#53393B" transform="translate(112.64453125,221.37890625)"/>
<path d="M0 0 C2.76589638 -0.42552252 4.35051898 -0.35833436 6.8125 1 C8.6712883 4.13059083 8.55145843 7.44774828 8 11 C7.34 11.99 6.68 12.98 6 14 C6.969375 13.938125 7.93875 13.87625 8.9375 13.8125 C12.94291348 13.78812629 16.18076261 14.97414946 19.91015625 16.33203125 C22.34508502 17.1102982 24.45894094 17.24590894 27 17 C27.33 15.35 27.66 13.7 28 12 C29.66611905 11.957279 31.33382885 11.95936168 33 12 C34 13 34 13 34.1875 15.1875 C33.97397604 18.39035942 33.11554182 21.00198135 32 24 C32.56847656 24.00257813 33.13695312 24.00515625 33.72265625 24.0078125 C39.25538012 24.28491052 42.570538 25.36865901 46.55859375 29.2734375 C50.64678409 34.17040262 51.55913049 39.24819996 51.3515625 45.4375 C50.58629303 51.01546412 48.53729564 55.46270436 44.5625 59.4375 C39.06396082 62.79026779 34.41195703 63.88551154 28 63 C23.68956836 61.48350499 19.99808438 59.50389616 17 56 C17 55.34 17 54.68 17 54 C16.34 54 15.68 54 15 54 C11.70351316 49.05526974 13.06600904 43.68457805 14 38 C15.59516552 33.17670332 17.99066557 29.20746754 22 26 C22.66 26 23.32 26 24 26 C24 25.34 24 24.68 24 24 C22.36115792 23.7610022 20.72209332 23.5234459 19.08203125 23.29296875 C17.66191759 23.09314037 16.2426611 22.88714699 14.82421875 22.67578125 C10.80769029 21.94783893 10.80769029 21.94783893 7 23 C7.33 23.33 7.66 23.66 8 24 C8.08861992 26.8116338 8.11522355 29.59858255 8.09765625 32.41015625 C8.0962413 33.25219101 8.09482635 34.09422577 8.09336853 34.96177673 C8.08775263 37.66205335 8.07519748 40.36224828 8.0625 43.0625 C8.05748705 44.88867068 8.05292379 46.71484266 8.04882812 48.54101562 C8.03777804 53.02737542 8.02050279 57.51367384 8 62 C1.95179749 62.19721985 1.95179749 62.19721985 0 62 C-2.06640625 59.98046875 -2.06640625 59.98046875 -3.5625 57.1875 C-4.12195313 56.19492187 -4.68140625 55.20234375 -5.2578125 54.1796875 C-6.12019531 52.60574219 -6.12019531 52.60574219 -7 51 C-8.29797578 48.92832885 -9.6098553 46.86528398 -10.9375 44.8125 C-11.948125 43.224375 -12.95875 41.63625 -14 40 C-14.33 47.26 -14.66 54.52 -15 62 C-17.31 62 -19.62 62 -22 62 C-22.495 60.515 -22.495 60.515 -23 59 C-24.98 58.67 -26.96 58.34 -29 58 C-29 59.32 -29 60.64 -29 62 C-31.64 62 -34.28 62 -37 62 C-37 49.46 -37 36.92 -37 24 C-34.36 24 -31.72 24 -29 24 C-28.67 24.99 -28.34 25.98 -28 27 C-26.80011955 21.71800407 -26.80011955 21.71800407 -29 17 C-28.625 14.8125 -28.625 14.8125 -28 13 C-25.625 12.375 -25.625 12.375 -23 12 C-21 14 -21 14 -21 17 C-17.24062017 17.27507657 -15.06080217 17.02653185 -11.5625 15.5 C-7.7391874 13.89018417 -5.10113801 13.74890992 -1 14 C-1.350625 13.29875 -1.70125 12.5975 -2.0625 11.875 C-3.18370391 8.43664133 -2.90580307 6.4722451 -2 3 C-1.34 2.01 -0.68 1.02 0 0 Z " fill="#888484" transform="translate(363,210)"/>
<path d="M0 0 C1.40171148 0.02389281 2.80316882 0.07435223 4.203125 0.1484375 C4.8940625 0.16261719 5.585 0.17679688 6.296875 0.19140625 C11.79268936 0.34636342 17.21329661 0.77682804 22.453125 2.5234375 C23.46375 2.5234375 24.474375 2.5234375 25.515625 2.5234375 C28.453125 2.5234375 28.453125 2.5234375 30.453125 3.5234375 C30.453125 4.1834375 30.453125 4.8434375 30.453125 5.5234375 C31.38378784 5.42470337 31.38378784 5.42470337 32.33325195 5.32397461 C35.14339076 5.02962421 37.95444586 4.74517283 40.765625 4.4609375 C41.74208984 4.35716797 42.71855469 4.25339844 43.72460938 4.14648438 C44.66240234 4.05302734 45.60019531 3.95957031 46.56640625 3.86328125 C47.43048096 3.77425537 48.29455566 3.68522949 49.18481445 3.59350586 C51.453125 3.5234375 51.453125 3.5234375 54.453125 4.5234375 C54.453125 5.8434375 54.453125 7.1634375 54.453125 8.5234375 C52.143125 9.1834375 49.833125 9.8434375 47.453125 10.5234375 C51.53292888 12.42734598 55.61477782 13.18897301 60.00390625 14.015625 C62.91259223 14.61870184 65.66743668 15.49713128 68.453125 16.5234375 C68.453125 17.1834375 68.453125 17.8434375 68.453125 18.5234375 C57.54726806 22.2703634 46.39764674 24.58977496 35.13085938 26.95849609 C32.56496294 27.49984222 30.00009945 28.04481343 27.4375 28.6015625 C26.73850586 28.75270508 26.03951172 28.90384766 25.31933594 29.05957031 C23.23498666 29.53971471 23.23498666 29.53971471 20.453125 30.6484375 C14.71842063 32.32105961 9.50048288 32.36877715 4.109375 29.625 C2.71237357 28.81923888 1.32678887 27.99337037 -0.046875 27.1484375 C-0.76101562 26.7359375 -1.47515625 26.3234375 -2.2109375 25.8984375 C-7.38365482 22.84987786 -7.38365482 22.84987786 -8.546875 20.5234375 C-7.886875 20.1934375 -7.226875 19.8634375 -6.546875 19.5234375 C-6.58167969 18.57082031 -6.61648437 17.61820313 -6.65234375 16.63671875 C-6.67941406 15.38246094 -6.70648438 14.12820312 -6.734375 12.8359375 C-6.76917969 11.59457031 -6.80398437 10.35320312 -6.83984375 9.07421875 C-6.38824393 3.60082895 -5.76013406 0.85006384 0 0 Z " fill="#7D392C" transform="translate(112.546875,221.4765625)"/>
<path d="M0 0 C0.33 0 0.66 0 1 0 C1.22134176 2.12368444 1.42670007 4.24904024 1.625 6.375 C1.74101563 7.55835938 1.85703125 8.74171875 1.9765625 9.9609375 C1.98429687 10.96382812 1.99203125 11.96671875 2 13 C1.34 13.66 0.68 14.32 0 15 C2.46640969 16.52523986 4.94470082 18.0189971 7.4375 19.5 C8.12521484 19.92925781 8.81292969 20.35851562 9.52148438 20.80078125 C14.74316081 23.86092651 18.96971258 24.95916504 25 24 C26.9889321 23.37976822 28.86938772 22.62838289 30.7890625 21.81982422 C35.35736148 20.1258812 40.22300808 19.45104877 45 18.5625 C53.81156917 16.86973248 62.50842943 14.98787002 71.18359375 12.69921875 C74 12 74 12 76 12 C76.33 11.34 76.66 10.68 77 10 C81.875 11.875 81.875 11.875 83 13 C82.90997602 15.02408755 82.75358962 17.04544287 82.5625 19.0625 C82.46066406 20.16722656 82.35882813 21.27195313 82.25390625 22.41015625 C82.12822266 23.69212891 82.12822266 23.69212891 82 25 C81.12996338 25.1343042 80.25992676 25.2686084 79.36352539 25.40698242 C76.24045649 25.95760552 73.24426677 26.66412746 70.18359375 27.48828125 C69.0953833 27.78065674 68.00717285 28.07303223 66.88598633 28.37426758 C65.74798584 28.68388428 64.60998535 28.99350098 63.4375 29.3125 C62.27178467 29.62791748 61.10606934 29.94333496 59.9050293 30.26831055 C51.51536226 32.55245446 43.18510279 34.96159513 34.92578125 37.68359375 C30.86664228 38.96032943 27.24663577 39.25479815 23 39 C22 38 22 38 21.8125 35.5625 C22 33 22 33 24 31 C24.99 31 25.98 31 27 31 C27 30.34 27 29.68 27 29 C28.98 28.67 30.96 28.34 33 28 C33 27.34 33 26.68 33 26 C32.175 26.165 31.35 26.33 30.5 26.5 C26.58727683 27.05896045 22.94816827 27.06807187 19 27 C19 31.29 19 35.58 19 40 C14.31328651 39.0626573 12.02183911 38.04922489 8.04296875 35.62109375 C6.93115234 34.94755859 5.81933594 34.27402344 4.67382812 33.58007812 C3.51162051 32.86604529 2.34951236 32.15185054 1.1875 31.4375 C0.00627134 30.71872358 -1.17536539 30.00061734 -2.35742188 29.28320312 C-5.2423642 27.52868718 -8.12296183 25.76743667 -11 24 C-10.67 20.37 -10.34 16.74 -10 13 C-10.99 12.67 -11.98 12.34 -13 12 C-13 11.34 -13 10.68 -13 10 C-8.71 9.34 -4.42 8.68 0 8 C0 5.36 0 2.72 0 0 Z " fill="#936A65" transform="translate(105,228)"/>
<path d="M0 0 C4.50448758 2.64969858 6.85107836 5.58399147 9.5 10.125 C11.26924121 17.20196486 10.65642118 23.44475067 7.390625 29.96484375 C4.72392671 34.19866019 0.94427135 36.57769872 -3.8125 37.875 C-10.35352473 38.7036135 -15.33821914 37.57818999 -20.8125 33.875 C-22.5390625 32.36328125 -22.5390625 32.36328125 -23.8125 30.875 C-23.8125 30.215 -23.8125 29.555 -23.8125 28.875 C-24.4725 28.875 -25.1325 28.875 -25.8125 28.875 C-29.11292212 23.92436683 -27.73518258 18.5659984 -26.8125 12.875 C-24.98470773 6.91810188 -21.85495904 3.41544997 -16.8125 -0.125 C-11.19353684 -1.99798772 -5.63847309 -1.66381173 0 0 Z " fill="#0B0B0B" transform="translate(403.8125,235.125)"/>
<path d="M0 0 C0 12.54 0 25.08 0 38 C-8 38 -8 38 -10.06640625 35.98046875 C-10.56011719 35.05878906 -11.05382812 34.13710938 -11.5625 33.1875 C-12.12195313 32.19492187 -12.68140625 31.20234375 -13.2578125 30.1796875 C-13.83273437 29.13039063 -14.40765625 28.08109375 -15 27 C-16.29797578 24.92832885 -17.6098553 22.86528398 -18.9375 20.8125 C-20.4534375 18.4303125 -20.4534375 18.4303125 -22 16 C-22.33 23.26 -22.66 30.52 -23 38 C-25.31 38 -27.62 38 -30 38 C-30.495 36.515 -30.495 36.515 -31 35 C-32.98 34.67 -34.96 34.34 -37 34 C-37 35.32 -37 36.64 -37 38 C-39.64 38 -42.28 38 -45 38 C-45 25.79 -45 13.58 -45 1 C-42.69 1 -40.38 1 -38 1 C-37.97494385 1.65484375 -37.9498877 2.3096875 -37.92407227 2.984375 C-37.80707345 5.98973236 -37.68482365 8.99485485 -37.5625 12 C-37.52318359 13.02996094 -37.48386719 14.05992187 -37.44335938 15.12109375 C-37.20814561 20.80241075 -36.80518623 26.37046268 -36 32 C-34.02 32.33 -32.04 32.66 -30 33 C-30 22.44 -30 11.88 -30 1 C-22 1 -22 1 -19.80664062 3.11132812 C-19.26201172 4.07490234 -18.71738281 5.03847656 -18.15625 6.03125 C-17.55039062 7.06894531 -16.94453125 8.10664063 -16.3203125 9.17578125 C-15.71960938 10.27277344 -15.11890625 11.36976563 -14.5 12.5 C-13.86835938 13.59699219 -13.23671875 14.69398438 -12.5859375 15.82421875 C-11.03057494 18.53432018 -9.51172045 21.2653147 -8 24 C-7.67 16.41 -7.34 8.82 -7 1 C-3 0 -3 0 0 0 Z " fill="#0A0A0A" transform="translate(371,234)"/>
<path d="M0 0 C2.64 0 5.28 0 8 0 C11.6915047 7.92456259 15.07514007 15.94272167 18.3125 24.0625 C18.76689453 25.18849609 19.22128906 26.31449219 19.68945312 27.47460938 C20.33237305 29.08239258 20.33237305 29.08239258 20.98828125 30.72265625 C21.56896362 32.17297241 21.56896362 32.17297241 22.16137695 33.65258789 C23 36 23 36 23 38 C20.36 38 17.72 38 15 38 C13.515 33.545 13.515 33.545 12 29 C7.05 29.33 2.1 29.66 -3 30 C-3.99 32.64 -4.98 35.28 -6 38 C-8.64 38 -11.28 38 -14 38 C-13.30583578 33.71404635 -11.89486305 29.82229675 -10.3125 25.80078125 C-10.04993408 25.12452194 -9.78736816 24.44826263 -9.5168457 23.75151062 C-8.6817024 21.6036691 -7.8408175 19.45812563 -7 17.3125 C-6.43454306 15.85886113 -5.86943522 14.40508642 -5.3046875 12.95117188 C-4.76593871 11.56758614 -4.22688677 10.1841184 -3.6875 8.80078125 C-3.43331299 8.14870193 -3.17912598 7.49662262 -2.91723633 6.82478333 C-2.00969216 4.51000181 -1.1125758 2.22515161 0 0 Z " fill="#080808" transform="translate(299,234)"/>
<path d="M0 0 C2.94245353 1.81185562 4.84058536 3.94722085 5.8984375 7.2265625 C5.8984375 8.2165625 5.8984375 9.2065625 5.8984375 10.2265625 C0.50090985 10.58049874 0.50090985 10.58049874 -2.1015625 10.2265625 C-3.1276359 8.91318854 -4.12883575 7.57992145 -5.1015625 6.2265625 C-9.75554025 5.80700895 -9.75554025 5.80700895 -14.1015625 7.2265625 C-14.16995503 9.18755612 -14.16995503 9.18755612 -13.1015625 11.2265625 C-10.02587406 12.4493362 -7.02324744 13.30356171 -3.82421875 14.1171875 C1.48855513 15.64108728 3.80131788 17.61332909 6.8984375 22.2265625 C7.5872634 26.51259034 7.21454416 28.59434919 5.2734375 32.4765625 C2.06067602 36.19660211 -0.53856892 37.88341791 -5.46484375 38.54296875 C-11.55165986 38.82929849 -15.23093786 37.90438111 -20.1015625 34.2265625 C-22.74803846 30.81175481 -23.1015625 29.64115728 -23.1015625 25.2265625 C-19.6365625 24.7315625 -19.6365625 24.7315625 -16.1015625 24.2265625 C-15.4415625 26.2065625 -14.7815625 28.1865625 -14.1015625 30.2265625 C-12.47665296 30.25354439 -10.85161617 30.27295007 -9.2265625 30.2890625 C-8.32164062 30.30066406 -7.41671875 30.31226563 -6.484375 30.32421875 C-4.084704 30.38905507 -4.084704 30.38905507 -2.1015625 29.2265625 C-2.1015625 27.5765625 -2.1015625 25.9265625 -2.1015625 24.2265625 C-2.6584375 24.05640625 -3.2153125 23.88625 -3.7890625 23.7109375 C-16.19247159 19.77201705 -16.19247159 19.77201705 -21.1015625 15.4765625 C-22.6555306 11.98013427 -23.03738385 8.89948539 -22.1015625 5.2265625 C-17.54293847 -2.35514904 -7.72763063 -2.84399789 0 0 Z " fill="#0A0A0A" transform="translate(275.1015625,234.7734375)"/>
<path d="M0 0 C2.31 0.33 4.62 0.66 7 1 C7 2.98 7 4.96 7 7 C9.97 7 12.94 7 16 7 C14.29107501 3.68539295 14.29107501 3.68539295 10.875 3.3125 C9.92625 3.209375 8.9775 3.10625 8 3 C8.33 2.34 8.66 1.68 9 1 C12.375 0.875 12.375 0.875 16 1 C16.66 1.66 17.32 2.32 18 3 C19.32 2.34 20.64 1.68 22 1 C22 3.64 22 6.28 22 9 C22.99 9 23.98 9 25 9 C24.67 7.35 24.34 5.7 24 4 C25.32 4.33 26.64 4.66 28 5 C28.06058594 5.75925781 28.12117188 6.51851562 28.18359375 7.30078125 C28.30927734 8.79158203 28.30927734 8.79158203 28.4375 10.3125 C28.51871094 11.29863281 28.59992188 12.28476563 28.68359375 13.30078125 C28.91812559 16.09375599 28.91812559 16.09375599 30 19 C31.98 19 33.96 19 36 19 C36 22 36 22 35 24 C32.59375 25.0703125 32.59375 25.0703125 29.5 26.125 C28.4996875 26.47820312 27.499375 26.83140625 26.46875 27.1953125 C18.13536272 29.1285082 12.73976185 28.07813653 5.5 23.625 C4.78585938 23.2125 4.07171875 22.8 3.3359375 22.375 C-1.83677982 19.32644036 -1.83677982 19.32644036 -3 17 C-2.34 16.67 -1.68 16.34 -1 16 C-1.01160156 15.01257813 -1.02320312 14.02515625 -1.03515625 13.0078125 C-1.04417969 11.72648438 -1.05320312 10.44515625 -1.0625 9.125 C-1.07410156 7.84882813 -1.08570312 6.57265625 -1.09765625 5.2578125 C-1 2 -1 2 0 0 Z " fill="#431317" transform="translate(107,225)"/>
<path d="M0 0 C2.97 0 5.94 0 9 0 C12.66739436 8.88637863 15.8412567 17.9238776 19 27 C20.94122419 24.08816371 21.86215036 21.75892873 22.9453125 18.45703125 C23.29980469 17.38388672 23.65429688 16.31074219 24.01953125 15.20507812 C24.38433594 14.08552734 24.74914062 12.96597656 25.125 11.8125 C25.49753906 10.68134766 25.87007812 9.55019531 26.25390625 8.38476562 C27.17332497 5.59114719 28.08851441 2.79621484 29 0 C31.97 0 34.94 0 38 0 C35.46549511 8.84049146 32.41188308 17.47176887 29.3125 26.125 C28.79599521 27.57283508 28.27971748 29.02075119 27.76367188 30.46875 C26.51172814 33.98010364 25.25672486 37.49035427 24 41 C21.03 41 18.06 41 15 41 C11.37382901 32.59465791 8.19626666 24.10269841 5.25 15.4375 C4.85167969 14.27669922 4.45335937 13.11589844 4.04296875 11.91992188 C2.68228329 7.95087159 1.32683367 3.98050102 0 0 Z " fill="#090909" transform="translate(192,234)"/>
<path d="M0 0 C2.97 0 5.94 0 9 0 C9 1.32 9 2.64 9 4 C11.64 4 14.28 4 17 4 C17.66 5.32 18.32 6.64 19 8 C19.75925781 7.96519531 20.51851563 7.93039062 21.30078125 7.89453125 C22.79158203 7.85392578 22.79158203 7.85392578 24.3125 7.8125 C25.29863281 7.77769531 26.28476562 7.74289062 27.30078125 7.70703125 C30 8 30 8 31.85546875 9.32421875 C33 11 33 11 33 14 C9.9 14 -13.2 14 -37 14 C-36.67 12.35 -36.34 10.7 -36 9 C-33.35541621 7.67770811 -31.32238699 7.90322806 -28.375 7.9375 C-26.87066406 7.95103516 -26.87066406 7.95103516 -25.3359375 7.96484375 C-24.56507813 7.97644531 -23.79421875 7.98804688 -23 8 C-22.67 6.68 -22.34 5.36 -22 4 C-12.1 4 -2.2 4 8 4 C8 3.01 8 2.02 8 1 C5.36 1 2.72 1 0 1 C0 0.67 0 0.34 0 0 Z " fill="#9B9696" transform="translate(368,276)"/>
<path d="M0 0 C2.59400506 2.59400506 2.32711615 3.83184616 2.375 7.4375 C2.40335938 8.40558594 2.43171875 9.37367188 2.4609375 10.37109375 C2 13 2 13 0.21875 14.82421875 C-2.57208788 16.30316629 -5.14682246 16.3176067 -8.25390625 16.5625 C-12.87172231 17.29819758 -17.1015077 19.10809273 -21.46484375 20.74609375 C-24.59870057 21.85766064 -27.63719407 22.70183525 -30.875 23.4375 C-37.35123524 24.94949554 -43.44079073 27.29716865 -49.62890625 29.6953125 C-51.73505005 30.51043652 -53.85751499 31.28583833 -56 32 C-56.33 29.36 -56.66 26.72 -57 24 C-56.43603516 23.80365967 -55.87207031 23.60731934 -55.29101562 23.4050293 C-52.69367013 22.50015965 -50.09683327 21.59383858 -47.5 20.6875 C-46.1696875 20.2244043 -46.1696875 20.2244043 -44.8125 19.75195312 C-39.51459536 17.90158202 -34.24636792 15.99190371 -29 14 C-29.66 13.34 -30.32 12.68 -31 12 C-6.15533981 3 -6.15533981 3 0 3 C0 2.01 0 1.02 0 0 Z " fill="#827475" transform="translate(184,254)"/>
<path d="M0 0 C3.50178537 2.22840887 5.43027231 4.19079414 7 8 C7.78778935 13.62706678 7.20098795 18.19851807 4 23 C1.4592833 25.82301856 -0.05258162 26.00848091 -3.875 26.625 C-7.30602316 26.46437157 -9.05910019 25.59947919 -11.5 23.1875 C-14.49007666 19.16805269 -14.7440388 15.50083922 -14.4609375 10.59375 C-13.66510178 6.11548797 -11.75945435 3.29026652 -8.125 0.625 C-5.20173359 -0.23478424 -3.03665023 -0.37183472 0 0 Z " fill="#BBB9B9" transform="translate(399,240)"/>
<path d="M0 0 C2.52090778 -0.0272367 5.04151457 -0.04695207 7.5625 -0.0625 C8.61920898 -0.07506836 8.61920898 -0.07506836 9.69726562 -0.08789062 C15.30046867 -0.11371184 20.64111656 0.21370552 26 2 C27.010625 2 28.02125 2 29.0625 2 C32 2 32 2 34 3 C34 3.66 34 4.32 34 5 C34.93066284 4.90126587 34.93066284 4.90126587 35.88012695 4.80053711 C38.69026576 4.50618671 41.50132086 4.22173533 44.3125 3.9375 C45.28896484 3.83373047 46.26542969 3.72996094 47.27148438 3.62304688 C48.20927734 3.52958984 49.14707031 3.43613281 50.11328125 3.33984375 C50.97735596 3.25081787 51.84143066 3.16179199 52.73168945 3.07006836 C55 3 55 3 58 4 C58 4.33 58 4.66 58 5 C57.154375 5.09796875 56.30875 5.1959375 55.4375 5.296875 C45.48668062 6.26603392 45.48668062 6.26603392 37 11 C36.34177514 13.0908319 36.19045295 14.90689531 36.12109375 17.09375 C36 19 36 19 34.75 21.5 C33 23 33 23 30.3125 23.25 C29.549375 23.1675 28.78625 23.085 28 23 C25.97441119 19.65060119 25.78261013 17.13037449 25.875 13.25 C25.89304688 12.26515625 25.91109375 11.2803125 25.9296875 10.265625 C25.95289063 9.51796875 25.97609375 8.7703125 26 8 C24.68 7.67 23.36 7.34 22 7 C22.33 8.65 22.66 10.3 23 12 C22.01 12 21.02 12 20 12 C19.67 13.32 19.34 14.64 19 16 C19 12.37 19 8.74 19 5 C17.02 5.99 17.02 5.99 15 7 C14.67 6.34 14.34 5.68 14 5 C11.69 5 9.38 5 7 5 C8.4540625 5.4021875 8.4540625 5.4021875 9.9375 5.8125 C10.948125 6.204375 11.95875 6.59625 13 7 C13.33 7.99 13.66 8.98 14 10 C11.03 10 8.06 10 5 10 C4.9071875 8.824375 4.9071875 8.824375 4.8125 7.625 C4.544375 6.75875 4.27625 5.8925 4 5 C1.52363988 3.62533375 1.52363988 3.62533375 -1 3 C-0.67 2.01 -0.34 1.02 0 0 Z " fill="#703D42" transform="translate(109,222)"/>
<path d="M0 0 C6.08602583 1.73886452 11.64938638 4.14705472 17.3125 6.9375 C18.00601563 7.27330078 18.69953125 7.60910156 19.4140625 7.95507812 C23.15926919 9.83495372 26.4804804 11.54447567 29 15 C29.390625 17.796875 29.390625 17.796875 29.25 20.75 C29.21390625 21.73484375 29.1778125 22.7196875 29.140625 23.734375 C29.07101563 24.85585938 29.07101563 24.85585938 29 26 C24.69457228 25.41556845 21.73536001 23.87439918 18.04296875 21.62109375 C16.37524414 20.61079102 16.37524414 20.61079102 14.67382812 19.58007812 C13.51162051 18.86604529 12.34951236 18.15185054 11.1875 17.4375 C10.00627134 16.71872358 8.82463461 16.00061734 7.64257812 15.28320312 C4.7576358 13.52868718 1.87703817 11.76743667 -1 10 C-0.67 6.7 -0.34 3.4 0 0 Z " fill="#B3B19A" transform="translate(95,242)"/>
<path d="M0 0 C0 0.66 0 1.32 0 2 C-0.66 2 -1.32 2 -2 2 C-2 2.99 -2 3.98 -2 5 C-5.62248243 6.13321468 -9.24840531 7.25502223 -12.875 8.375 C-13.88820312 8.69210937 -14.90140625 9.00921875 -15.9453125 9.3359375 C-21.51036745 11.0482621 -27.00025332 12.45795605 -32.72216797 13.52587891 C-36.14386241 14.23809012 -39.32619765 15.34153408 -42.625 16.5 C-57.46604096 21.5695748 -57.46604096 21.5695748 -65 20 C-64.01 19.34 -63.02 18.68 -62 18 C-61.77862607 15.37302936 -61.71837975 12.99106036 -61.8125 10.375 C-61.82603516 9.66859375 -61.83957031 8.9621875 -61.85351562 8.234375 C-61.8888896 6.48925872 -61.94269779 4.74453392 -62 3 C-57.38 2.67 -52.76 2.34 -48 2 C-48 2.66 -48 3.32 -48 4 C-49.98 4.33 -51.96 4.66 -54 5 C-54 5.66 -54 6.32 -54 7 C-55.98 7.99 -55.98 7.99 -58 9 C-58 10.65 -58 12.3 -58 14 C-52.65726949 14.22957045 -48.1336218 13.46424716 -43 11.9375 C-42.24033936 11.71924561 -41.48067871 11.50099121 -40.69799805 11.27612305 C-32.13199882 8.79448122 -23.60577957 6.17318707 -15.08203125 3.55078125 C-13.3882782 3.03301152 -11.69429043 2.51600855 -10 2 C-9.2992334 1.78520996 -8.5984668 1.57041992 -7.87646484 1.34912109 C-5.12546728 0.52864814 -2.8921487 0 0 0 Z " fill="#662E22" transform="translate(186,252)"/>
<path d="M0 0 C6.93390941 3.65488309 13.57046955 7.51624851 20 12 C20.68578125 12.46792969 21.3715625 12.93585938 22.078125 13.41796875 C26.86936236 16.73872473 26.86936236 16.73872473 28 19 C28.07033769 20.87379605 28.0843022 22.75001102 28.0625 24.625 C28.05347656 25.62789063 28.04445313 26.63078125 28.03515625 27.6640625 C28.02355469 28.43492187 28.01195313 29.20578125 28 30 C22.60041105 26.56770315 17.47471914 22.87433445 12.4375 18.9375 C7.78690725 15.30519639 3.08857161 11.99327742 -2 9 C-1.34 8.67 -0.68 8.34 0 8 C0 5.36 0 2.72 0 0 Z " fill="#ABA990" transform="translate(97,258)"/>
<path d="M0 0 C2.31 0 4.62 0 7 0 C8.40027356 25.9701529 8.40027356 25.9701529 7 37 C4.69 37 2.38 37 0 37 C0 24.79 0 12.58 0 0 Z " fill="#020202" transform="translate(326,235)"/>
<path d="M0 0 C2.31 0 4.62 0 7 0 C7 12.21 7 24.42 7 37 C4.69 37 2.38 37 0 37 C0 24.79 0 12.58 0 0 Z " fill="#000000" transform="translate(239,235)"/>
<path d="M0 0 C0.33 0 0.66 0 1 0 C1.22134176 2.12368444 1.42670007 4.24904024 1.625 6.375 C1.74101563 7.55835938 1.85703125 8.74171875 1.9765625 9.9609375 C1.98429687 10.96382812 1.99203125 11.96671875 2 13 C1.34 13.66 0.68 14.32 0 15 C2.46640969 16.52523986 4.94470082 18.0189971 7.4375 19.5 C8.12521484 19.92925781 8.81292969 20.35851562 9.52148438 20.80078125 C14.76695735 23.87487239 18.94813929 24.78556728 25 24 C27.42448952 23.40386657 27.42448952 23.40386657 29.3125 22.4375 C32.99260923 21.00288115 33.54409729 20.84803243 37 22 C35.35 22.66 33.7 23.32 32 24 C32.71285156 23.855625 33.42570312 23.71125 34.16015625 23.5625 C39.53773843 22.5202768 44.52360792 21.7566048 50 22 C47.40635046 24.59364954 45.13943651 24.9891059 41.625 26 C37.06680382 27.29452767 37.06680382 27.29452767 32.7265625 29.1484375 C31 30 31 30 28.75 29.625 C27.88375 29.315625 27.88375 29.315625 27 29 C28.98 28.67 30.96 28.34 33 28 C33 27.34 33 26.68 33 26 C32.175 26.165 31.35 26.33 30.5 26.5 C26.58727683 27.05896045 22.94816827 27.06807187 19 27 C18.67 27.66 18.34 28.32 18 29 C17.44820068 28.3512793 17.44820068 28.3512793 16.88525391 27.68945312 C14.4194603 25.47975464 11.84390916 24.35146427 8.8359375 22.96875 C7.61970275 22.39992967 6.40355961 21.83091342 5.1875 21.26171875 C3.27538403 20.37613308 1.36179756 19.49394693 -0.55371094 18.61572266 C-2.40721497 17.76299692 -4.25453071 16.89788547 -6.1015625 16.03125 C-7.20838379 15.52142578 -8.31520508 15.01160156 -9.45556641 14.48632812 C-12 13 -12 13 -13 10 C-8.71 9.34 -4.42 8.68 0 8 C0 5.36 0 2.72 0 0 Z " fill="#864A40" transform="translate(105,228)"/>
<path d="M0 0 C2.52090778 -0.0272367 5.04151457 -0.04695207 7.5625 -0.0625 C8.61920898 -0.07506836 8.61920898 -0.07506836 9.69726562 -0.08789062 C15.30046867 -0.11371184 20.64111656 0.21370552 26 2 C27.33106622 2.34227417 28.66400079 2.67751743 30 3 C29.34 3.66 28.68 4.32 28 5 C28.33 5.66 28.66 6.32 29 7 C28.75290429 9.05061033 28.43007496 11.09252671 28.0625 13.125 C27.86785156 14.22070312 27.67320312 15.31640625 27.47265625 16.4453125 C27.31667969 17.28835937 27.16070312 18.13140625 27 19 C26.67 19 26.34 19 26 19 C26 15.37 26 11.74 26 8 C24.68 7.67 23.36 7.34 22 7 C22.33 8.65 22.66 10.3 23 12 C22.01 12 21.02 12 20 12 C19.67 13.32 19.34 14.64 19 16 C19 12.37 19 8.74 19 5 C17.02 5.99 17.02 5.99 15 7 C14.67 6.34 14.34 5.68 14 5 C11.69 5 9.38 5 7 5 C8.4540625 5.4021875 8.4540625 5.4021875 9.9375 5.8125 C10.948125 6.204375 11.95875 6.59625 13 7 C13.33 7.99 13.66 8.98 14 10 C11.03 10 8.06 10 5 10 C4.9071875 8.824375 4.9071875 8.824375 4.8125 7.625 C4.544375 6.75875 4.27625 5.8925 4 5 C1.52363988 3.62533375 1.52363988 3.62533375 -1 3 C-0.67 2.01 -0.34 1.02 0 0 Z " fill="#80625C" transform="translate(109,222)"/>
<path d="M0 0 C21.45 0 42.9 0 65 0 C65.495 1.485 65.495 1.485 66 3 C43.89 3 21.78 3 -1 3 C-0.67 2.01 -0.34 1.02 0 0 Z " fill="#FEFEFE" transform="translate(333,286)"/>
<path d="M0 0 C0 7.59 0 15.18 0 23 C-5.6326743 17.3673257 -5.6326743 17.3673257 -7.23828125 14.5546875 C-7.58310547 13.95269531 -7.92792969 13.35070312 -8.28320312 12.73046875 C-8.79270508 11.81201172 -8.79270508 11.81201172 -9.3125 10.875 C-9.85100586 9.94494141 -9.85100586 9.94494141 -10.40039062 8.99609375 C-12.02006079 6.12696374 -13 4.3471484 -13 1 C-7.74266644 -1.17987001 -6.1685507 -0.88122153 0 0 Z " fill="#FAFAFA" transform="translate(362,232)"/>
<path d="M0 0 C2.475 0.495 2.475 0.495 5 1 C5.33 2.32 5.66 3.64 6 5 C9.75937983 5.27507657 11.93919783 5.02653185 15.4375 3.5 C19.2608126 1.89018417 21.89886199 1.74890992 26 2 C26.33 1.34 26.66 0.68 27 0 C29.475 0.495 29.475 0.495 32 1 C32 1.66 32 2.32 32 3 C30.02 3 28.04 3 26 3 C26 4.98 26 6.96 26 9 C25.07767578 8.98259766 25.07767578 8.98259766 24.13671875 8.96484375 C22.92435547 8.95130859 22.92435547 8.95130859 21.6875 8.9375 C20.88699219 8.92589844 20.08648437 8.91429687 19.26171875 8.90234375 C16.83138666 8.90342145 16.83138666 8.90342145 14 10 C9.13819773 10.6373149 6.01340107 10.72385791 1.9375 7.8125 C-0.13037986 4.81073891 -0.50709429 3.54966001 0 0 Z " fill="#D9D7D7" transform="translate(336,222)"/>
<path d="M0 0 C3.64704109 0.67180919 6.364 2.23654377 9.53515625 4.125 C11.11973633 5.06085938 11.11973633 5.06085938 12.73632812 6.015625 C14.3827832 6.99789063 14.3827832 6.99789063 16.0625 8 C18.23940093 9.29416697 20.41772197 10.58594906 22.59765625 11.875 C23.56195557 12.44992187 24.52625488 13.02484375 25.51977539 13.6171875 C28.01134384 15.106989 28.01134384 15.106989 31 16 C31 12.37 31 8.74 31 5 C31.33 5 31.66 5 32 5 C32 9.29 32 13.58 32 18 C27.64350859 19.08912285 27.5652578 18.95514137 24 17 C23.01 17 22.02 17 21 17 C19.0546875 16.0378418 19.0546875 16.0378418 16.875 14.69921875 C15.69164063 13.97508789 15.69164063 13.97508789 14.484375 13.23632812 C13.66453125 12.72521484 12.8446875 12.21410156 12 11.6875 C11.18015625 11.18798828 10.3603125 10.68847656 9.515625 10.17382812 C2.15284792 5.63224586 2.15284792 5.63224586 0 3 C0 2.01 0 1.02 0 0 Z " fill="#715F59" transform="translate(93,252)"/>
<path d="M0 0 C1.98 0 3.96 0 6 0 C6 2.97 6 5.94 6 9 C4.68 9 3.36 9 2 9 C2 16.92 2 24.84 2 33 C-1 30 -1 30 -1.2487793 27.45629883 C-1.19117432 26.46654053 -1.13356934 25.47678223 -1.07421875 24.45703125 C-1.01943359 23.38388672 -0.96464844 22.31074219 -0.90820312 21.20507812 C-0.83537109 20.08552734 -0.76253906 18.96597656 -0.6875 17.8125 C-0.62626953 16.68134766 -0.56503906 15.55019531 -0.50195312 14.38476562 C-0.34858501 11.58874697 -0.18072046 8.79436237 0 6 C-4.46128266 5.96820939 -8.64039057 5.96199776 -13 7 C-13.33 7.66 -13.66 8.32 -14 9 C-16.31 8.67 -18.62 8.34 -21 8 C-21 7.34 -21 6.68 -21 6 C-14.25846717 4.74158054 -7.86515862 3.73595544 -1 4 C-0.67 2.68 -0.34 1.36 0 0 Z " fill="#969292" transform="translate(362,226)"/>
<path d="M0 0 C0.33 0.66 0.66 1.32 1 2 C3.97 2 6.94 2 10 2 C10.33 1.34 10.66 0.68 11 0 C11.06058594 0.83144531 11.12117188 1.66289062 11.18359375 2.51953125 C11.26738281 3.60621094 11.35117188 4.69289062 11.4375 5.8125 C11.55931641 7.43091797 11.55931641 7.43091797 11.68359375 9.08203125 C11.90212461 12.05989905 11.90212461 12.05989905 13 15 C5.20515753 15.11658952 5.20515753 15.11658952 2.51171875 12.62109375 C-0.04011212 8.47320867 -0.39833509 4.87960491 0 0 Z " fill="#512B18" transform="translate(113,230)"/>
<path d="M0 0 C0.66 0 1.32 0 2 0 C2 8.58 2 17.16 2 26 C0.02 26 -1.96 26 -4 26 C-4.55714963 16.54393261 -3.25738186 8.8850907 0 0 Z " fill="#F4F3F3" transform="translate(338,232)"/>
<path d="M0 0 C12.21 0 24.42 0 37 0 C37.495 1.485 37.495 1.485 38 3 C25.13 3 12.26 3 -1 3 C-0.67 2.01 -0.34 1.02 0 0 Z " fill="#FDFDFD" transform="translate(347,281)"/>
<path d="M0 0 C0.99 0.66 1.98 1.32 3 2 C3 2.99 3 3.98 3 5 C8.67650209 7.30547354 14.33359751 7.64948316 20.375 8.125 C21.90833984 8.25455078 21.90833984 8.25455078 23.47265625 8.38671875 C25.98130112 8.59772626 28.49030455 8.80194994 31 9 C27.58208502 12.41791498 23.52489908 13.13600625 18.81640625 13.328125 C13.51017633 13.27302621 9.94170743 11.3570691 5.5 8.625 C4.78585938 8.2125 4.07171875 7.8 3.3359375 7.375 C-1.83677982 4.32644036 -1.83677982 4.32644036 -3 2 C-2.01 1.34 -1.02 0.68 0 0 Z " fill="#5E2416" transform="translate(107,240)"/>
<path d="M0 0 C1.8253125 0.0309375 1.8253125 0.0309375 3.6875 0.0625 C3.6875 1.0525 3.6875 2.0425 3.6875 3.0625 C-0.6025 3.7225 -4.8925 4.3825 -9.3125 5.0625 C-9.3125 5.7225 -9.3125 6.3825 -9.3125 7.0625 C-10.3025 7.5575 -10.3025 7.5575 -11.3125 8.0625 C-10.9825 8.7225 -10.6525 9.3825 -10.3125 10.0625 C-14.2725 12.0425 -14.2725 12.0425 -18.3125 14.0625 C-18.3125 11.4225 -18.3125 8.7825 -18.3125 6.0625 C-16.92172699 5.24136823 -15.52461107 4.43097505 -14.125 3.625 C-13.34769531 3.17253906 -12.57039062 2.72007812 -11.76953125 2.25390625 C-7.89193239 0.37367151 -4.27125003 -0.07239407 0 0 Z " fill="#662E24" transform="translate(163.3125,226.9375)"/>
<path d="M0 0 C1.32 0.33 2.64 0.66 4 1 C3.69025617 3.89094238 2.95829554 5.04691751 1 7.25 C-3.04380831 9.60888818 -6.41828268 9.52337969 -11 9 C-11.99 8.67 -12.98 8.34 -14 8 C-15.56118428 7.93259135 -17.1250252 7.91485544 -18.6875 7.9375 C-19.49574219 7.94652344 -20.30398438 7.95554688 -21.13671875 7.96484375 C-21.75160156 7.97644531 -22.36648438 7.98804688 -23 8 C-23 6.35 -23 4.7 -23 3 C-21.58376784 2.94552953 -20.16691809 2.90699492 -18.75 2.875 C-17.96109375 2.85179687 -17.1721875 2.82859375 -16.359375 2.8046875 C-13.76785414 3.01921737 -12.28221495 3.81028551 -10 5 C-6.28183899 5.19569268 -3.53970718 5.17990239 0 4 C0 2.68 0 1.36 0 0 Z " fill="#F7F7F7" transform="translate(392,223)"/>
<path d="M0 0 C2.31 0.33 4.62 0.66 7 1 C7 2.32 7 3.64 7 5 C9.31 5.33 11.62 5.66 14 6 C14 6.99 14 7.98 14 9 C7.07 9 0.14 9 -7 9 C-7 7.68 -7 6.36 -7 5 C-4.69 5 -2.38 5 0 5 C0 3.35 0 1.7 0 0 Z " fill="#E6E5E5" transform="translate(362,271)"/>
<path d="M0 0 C0 0.66 0 1.32 0 2 C-0.66 2 -1.32 2 -2 2 C-2 2.99 -2 3.98 -2 5 C-5.07790202 6.03774122 -8.16300246 7.05216917 -11.25 8.0625 C-12.12269531 8.35705078 -12.99539062 8.65160156 -13.89453125 8.95507812 C-14.73886719 9.22900391 -15.58320313 9.50292969 -16.453125 9.78515625 C-17.22817383 10.04176025 -18.00322266 10.29836426 -18.80175781 10.56274414 C-21.22641603 11.04503677 -22.67847821 10.7792359 -25 10 C-24.01 9.67 -23.02 9.34 -22 9 C-23.65 8.67 -25.3 8.34 -27 8 C-24.22498254 6.14998836 -22.36673921 5.38964056 -19.21875 4.4921875 C-18.29449219 4.22792969 -17.37023437 3.96367187 -16.41796875 3.69140625 C-15.45503906 3.42199219 -14.49210938 3.15257812 -13.5 2.875 C-12.53707031 2.59785156 -11.57414063 2.32070312 -10.58203125 2.03515625 C-3.39381927 0 -3.39381927 0 0 0 Z " fill="#5B3A38" transform="translate(186,252)"/>
<path d="M0 0 C1.32 0 2.64 0 4 0 C4.67155349 2.26949102 5.3373963 4.5403961 6 6.8125 C6.37125 8.07707031 6.7425 9.34164062 7.125 10.64453125 C8 14 8 14 8 17 C5.36 17 2.72 17 0 17 C0 11.39 0 5.78 0 0 Z " fill="#FBFBFB" transform="translate(392,241)"/>
<path d="M0 0 C6.27 0 12.54 0 19 0 C16 5 16 5 13 7 C7.86301131 7.66283725 7.86301131 7.66283725 5 7 C2.74146172 5.18992746 1.61363947 3.47088544 0 1 C0 0.67 0 0.34 0 0 Z " fill="#F9F9F9" transform="translate(386,259)"/>
<path d="M0 0 C5.875 1.875 5.875 1.875 7 3 C7.04080783 4.99958364 7.04254356 7.00045254 7 9 C6.67 7.68 6.34 6.36 6 5 C4.78183594 5.28875 3.56367188 5.5775 2.30859375 5.875 C0.68498829 6.25040011 -0.93871489 6.62537772 -2.5625 7 C-3.76229492 7.28617188 -3.76229492 7.28617188 -4.98632812 7.578125 C-9.78345532 8.67461122 -14.08016034 9.21132197 -19 9 C-18.67 8.01 -18.34 7.02 -18 6 C-15.32729241 5.11501709 -12.79794706 4.42011443 -10.0625 3.8125 C-9.32064453 3.63525391 -8.57878906 3.45800781 -7.81445312 3.27539062 C-2.38296332 2 -2.38296332 2 0 2 C0 1.34 0 0.68 0 0 Z " fill="#996662" transform="translate(181,238)"/>
<path d="M0 0 C4.07480649 1.417324 7.08770983 3.37516141 10.5 6 C11.53640625 6.79277344 12.5728125 7.58554687 13.640625 8.40234375 C14.76048394 9.26814216 15.88027299 10.13403097 17 11 C18.22356611 11.93931322 19.44753021 12.87810822 20.671875 13.81640625 C23.78595637 16.20487643 26.8943228 18.60061391 30 21 C29.67 21.66 29.34 22.32 29 23 C24.67943524 21.56503929 21.85873858 19.41188293 18.4375 16.4375 C13.21296643 11.94235488 7.80069715 7.83126975 2.203125 3.8125 C1.47609375 3.214375 0.7490625 2.61625 0 2 C0 1.34 0 0.68 0 0 Z " fill="#7E726F" transform="translate(95,267)"/>
<path d="M0 0 C5 1 5 1 7.3125 3.5 C9.42155329 7.87433275 9.38082175 11.23972817 9 16 C7.35 16.33 5.7 16.66 4 17 C2.68 11.39 1.36 5.78 0 0 Z " fill="#EFEFEF" transform="translate(397,241)"/>
<path d="M0 0 C5.28 0 10.56 0 16 0 C16 0.33 16 0.66 16 1 C14.35 1 12.7 1 11 1 C11 1.66 11 2.32 11 3 C9.02 3.99 9.02 3.99 7 5 C8.4540625 5.4021875 8.4540625 5.4021875 9.9375 5.8125 C10.948125 6.204375 11.95875 6.59625 13 7 C13.33 7.99 13.66 8.98 14 10 C11.03 10 8.06 10 5 10 C4.9071875 8.824375 4.9071875 8.824375 4.8125 7.625 C4.544375 6.75875 4.27625 5.8925 4 5 C1.52363988 3.62533375 1.52363988 3.62533375 -1 3 C-0.67 2.01 -0.34 1.02 0 0 Z " fill="#715848" transform="translate(109,222)"/>
<path d="M0 0 C0.99 0.33 1.98 0.66 3 1 C3 1.66 3 2.32 3 3 C5.41626418 3.19534474 7.83265229 3.38153404 10.25 3.5625 C11.27287109 3.64661133 11.27287109 3.64661133 12.31640625 3.73242188 C15.79218332 3.98551244 18.65555664 3.95328552 22 3 C24.0625 3.9375 24.0625 3.9375 26 5 C26.99 5 27.98 5 29 5 C28.67 4.34 28.34 3.68 28 3 C29.65 2.67 31.3 2.34 33 2 C33 5 33 5 32 7 C6.78629032 7.33568548 6.78629032 7.33568548 0 3 C0 2.01 0 1.02 0 0 Z " fill="#4A1E13" transform="translate(110,242)"/>
<path d="M0 0 C0.66 0 1.32 0 2 0 C2.67057887 1.7902061 3.3363469 3.58221489 4 5.375 C4.556875 6.87160156 4.556875 6.87160156 5.125 8.3984375 C6 11 6 11 6 13 C2.7 13 -0.6 13 -4 13 C-3.52140759 11.39566191 -3.04210442 9.79153584 -2.5625 8.1875 C-2.29566406 7.29417969 -2.02882813 6.40085938 -1.75390625 5.48046875 C-1.19612127 3.64526945 -0.60655425 1.81966274 0 0 Z " fill="#EAEAEA" transform="translate(302,244)"/>
<path d="M0 0 C1 1 1 1 1.09765625 3.06640625 C1.08605469 3.89011719 1.07445312 4.71382813 1.0625 5.5625 C1.05347656 6.38878906 1.04445312 7.21507812 1.03515625 8.06640625 C1.02355469 8.70449219 1.01195312 9.34257812 1 10 C-1.64 10 -4.28 10 -7 10 C-7.38218767 8.34385343 -7.71395102 6.67542976 -8 5 C-7 4 -7 4 -3.9375 3.9375 C-2.4834375 3.9684375 -2.4834375 3.9684375 -1 4 C-1 3.01 -1 2.02 -1 1 C-3.31 1.66 -5.62 2.32 -8 3 C-7.67 2.01 -7.34 1.02 -7 0 C-4.31633121 -1.3418344 -2.84719317 -0.73004953 0 0 Z " fill="#29A7BE" transform="translate(199,283)"/>
<path d="M0 0 C2.31 0 4.62 0 7 0 C6.34 0.66 5.68 1.32 5 2 C4.01 2 3.02 2 2 2 C2 2.66 2 3.32 2 4 C1.45214844 4.08636719 0.90429688 4.17273438 0.33984375 4.26171875 C-5.14787259 5.23433839 -10.35644177 6.6959239 -15.625 8.5 C-29.89511712 13.38155518 -29.89511712 13.38155518 -36 13 C-32.44654711 11.06256463 -28.70846765 9.81404836 -24.875 8.5625 C-24.20919922 8.34368164 -23.54339844 8.12486328 -22.85742188 7.89941406 C-20.90650162 7.26135947 -18.95372166 6.62941798 -17 6 C-15.53433594 5.52626953 -15.53433594 5.52626953 -14.0390625 5.04296875 C-9.35566288 3.58030702 -4.88000213 2.53043501 0 2 C0 1.34 0 0.68 0 0 Z " fill="#3D2021" transform="translate(159,260)"/>
<path d="M0 0 C0.33 0 0.66 0 1 0 C1.22197585 2.10277123 1.42713637 4.20732302 1.625 6.3125 C1.74101563 7.48425781 1.85703125 8.65601563 1.9765625 9.86328125 C2 13 2 13 0 16 C-4.23429756 14.68938409 -8.07407404 13.05643741 -12 11 C-8.17482487 8.60926555 -4.40334476 8.44033448 0 8 C0 5.36 0 2.72 0 0 Z " fill="#804336" transform="translate(105,228)"/>
<path d="M0 0 C2 2 2 2 2.125 5.625 C2.08375 6.73875 2.0425 7.8525 2 9 C1.67 8.01 1.34 7.02 1 6 C-0.17755859 6.45052734 -0.17755859 6.45052734 -1.37890625 6.91015625 C-11.81370826 10.68717047 -11.81370826 10.68717047 -18 9 C-14.94627964 6.42274665 -12.2945829 5.30432132 -8.4375 4.3125 C-7.48746094 4.06113281 -6.53742188 3.80976563 -5.55859375 3.55078125 C-3 3 -3 3 0 3 C0 2.01 0 1.02 0 0 Z " fill="#8B7D7F" transform="translate(184,254)"/>
<path d="M0 0 C3.875 0.875 3.875 0.875 5 2 C5.1328125 3.8125 5.1328125 3.8125 5.125 6 C5.12757813 6.721875 5.13015625 7.44375 5.1328125 8.1875 C5 10 5 10 4 11 C2.33382885 11.04063832 0.66611905 11.042721 -1 11 C-2.38550197 8.22899606 -2.1877467 6.0665294 -2 3 C-1.34 2.01 -0.68 1.02 0 0 Z " fill="#FAFAFA" transform="translate(364,211)"/>
<path d="M0 0 C-17.14893617 7.76595745 -17.14893617 7.76595745 -26 10 C-26 9.34 -26 8.68 -26 8 C-26.99 7.67 -27.98 7.34 -29 7 C-28.42032471 6.82871582 -27.84064941 6.65743164 -27.2434082 6.48095703 C-24.59904012 5.69808664 -21.95576753 4.91157788 -19.3125 4.125 C-18.40048828 3.85558594 -17.48847656 3.58617187 -16.54882812 3.30859375 C-15.66259766 3.04433594 -14.77636719 2.78007812 -13.86328125 2.5078125 C-13.05157471 2.26691895 -12.23986816 2.02602539 -11.40356445 1.77783203 C-8.93072806 1.01509981 -8.93072806 1.01509981 -6.34057617 -0.11767578 C-3.71012669 -1.1092732 -2.59161964 -0.95985913 0 0 Z " fill="#604A4B" transform="translate(180,270)"/>
<path d="M0 0 C0.99 0.495 0.99 0.495 2 1 C2.625 3.0625 2.625 3.0625 3 5 C3.66 3.35 4.32 1.7 5 0 C5.99 0 6.98 0 8 0 C8.33 1.32 8.66 2.64 9 4 C9.66 2.68 10.32 1.36 11 0 C11.66 0 12.32 0 13 0 C12.745504 1.48206495 12.47088238 2.96068615 12.1875 4.4375 C12.03667969 5.26121094 11.88585937 6.08492188 11.73046875 6.93359375 C11.36888672 7.95646484 11.36888672 7.95646484 11 9 C10.01 9.33 9.02 9.66 8 10 C7.34 8.02 6.68 6.04 6 4 C5.34 5.98 4.68 7.96 4 10 C3.34 10 2.68 10 2 10 C0.68373308 6.38026598 0 3.90432869 0 0 Z " fill="#2FAAC0" transform="translate(202,283)"/>
<path d="M0 0 C0.33 0 0.66 0 1 0 C1 4.29 1 8.58 1 13 C-0.32 13.33 -1.64 13.66 -3 14 C-5.04563599 12.73779907 -7.04402816 11.39712274 -9 10 C-10.64619113 9.28426473 -12.30728055 8.5974304 -14 8 C-14 7.34 -14 6.68 -14 6 C-15.32 5.34 -16.64 4.68 -18 4 C-15 3 -15 3 -12.1875 4.3984375 C-10.6096875 5.37683594 -10.6096875 5.37683594 -9 6.375 C-4.67302206 9.0568312 -4.67302206 9.0568312 0 11 C0 7.37 0 3.74 0 0 Z " fill="#7F5F54" transform="translate(124,257)"/>
<path d="M0 0 C-2.71609918 2.71609918 -5.86595045 3.46920222 -9.4375 4.625 C-10.11876953 4.85445313 -10.80003906 5.08390625 -11.50195312 5.3203125 C-14.44982818 6.29042613 -16.87666842 7 -20 7 C-20 6.01 -20 5.02 -20 4 C-17.79731661 3.12797877 -15.58986134 2.27754298 -13.375 1.4375 C-12.14523438 0.96183594 -10.91546875 0.48617188 -9.6484375 -0.00390625 C-5.88893079 -1.03032403 -3.73079436 -0.95852717 0 0 Z " fill="#766567" transform="translate(147,274)"/>
<path d="M0 0 C0 0.66 0 1.32 0 2 C-1.98 2.33 -3.96 2.66 -6 3 C-6 3.66 -6 4.32 -6 5 C-7.98 5.99 -7.98 5.99 -10 7 C-10.25030977 9.41619823 -10.25030977 9.41619823 -10 12 C-9.01 12.66 -8.02 13.32 -7 14 C-8.65 14 -10.3 14 -12 14 C-12 10.37 -12 6.74 -12 3 C-12.66 3 -13.32 3 -14 3 C-14 2.34 -14 1.68 -14 1 C-9.27616037 0.34843591 -4.78025483 -0.11950637 0 0 Z " fill="#7C3E31" transform="translate(138,254)"/>
<path d="M0 0 C2.31 0 4.62 0 7 0 C7 2.64 7 5.28 7 8 C5.00045254 8.04254356 2.99958364 8.04080783 1 8 C0 7 0 7 -0.0625 3.4375 C-0.041875 2.303125 -0.02125 1.16875 0 0 Z " fill="#FAFAFA" transform="translate(334,259)"/>
<path d="M0 0 C3.19019938 1.4106416 6.37663215 2.82960609 9.5625 4.25 C10.45775391 4.64574219 11.35300781 5.04148438 12.27539062 5.44921875 C17.36146516 7.72211653 22.21834155 10.14018781 27 13 C26.67 13.66 26.34 14.32 26 15 C21.84627552 13.0790971 17.70354589 11.13556662 13.5625 9.1875 C12.37849609 8.64029297 11.19449219 8.09308594 9.97460938 7.52929688 C8.84990234 6.99755859 7.72519531 6.46582031 6.56640625 5.91796875 C5.52427979 5.43094482 4.48215332 4.9439209 3.40844727 4.44213867 C1 3 1 3 0 0 Z " fill="#8D7067" transform="translate(92,238)"/>
<path d="M0 0 C3.375 -0.125 3.375 -0.125 7 0 C7.66 0.66 8.32 1.32 9 2 C10.32 1.34 11.64 0.68 13 0 C12.67 3.96 12.34 7.92 12 12 C11.67 12 11.34 12 11 12 C10.67 10.35 10.34 8.7 10 7 C9.01 7.99 8.02 8.98 7 10 C7.33 8.02 7.66 6.04 8 4 C3.545 3.01 3.545 3.01 -1 2 C-0.67 1.34 -0.34 0.68 0 0 Z " fill="#481B1F" transform="translate(116,226)"/>
<path d="M0 0 C2.125 0.9375 2.125 0.9375 4 2 C3.72285156 2.4846875 3.44570312 2.969375 3.16015625 3.46875 C0.48790715 8.4138373 -0.59967438 12.39544133 -1 18 C-1.66 18 -2.32 18 -3 18 C-3.0943856 13.18633417 -3.10903745 8.71340915 -2 4 C-2 3.01 -2 2.02 -2 1 C-1.34 0.67 -0.68 0.34 0 0 Z " fill="#8E6F72" transform="translate(139,224)"/>
<path d="M0 0 C3.21880117 3.7935871 5.6163187 7.65829477 8 12 C6.68 13.32 5.36 14.64 4 16 C4.66 14.35 5.32 12.7 6 11 C4.02 11 2.04 11 0 11 C0 7.37 0 3.74 0 0 Z " fill="#ADA9A9" transform="translate(348,248)"/>
<path d="M0 0 C1.99788438 0.34578768 3.99759451 0.68143549 6 1 C2.32054082 3.35485388 -0.72044282 3 -5 3 C-6.40458835 3.31767325 -7.80119988 3.67268376 -9.1875 4.0625 C-12.7590154 4.94074149 -13.72651681 5.0379337 -17 4 C-15.58521865 3.35004703 -14.16808513 2.70521278 -12.75 2.0625 C-11.96109375 1.70285156 -11.1721875 1.34320313 -10.359375 0.97265625 C-6.41096098 -0.65508397 -4.09909379 -1.20561582 0 0 Z " fill="#925C57" transform="translate(153,248)"/>
<path d="M0 0 C6.625 -0.125 6.625 -0.125 10 1 C14.74598472 1.3021788 19.37675552 1.19309535 24 0 C24 1.32 24 2.64 24 4 C17.96912841 5.22851088 14.14444764 4.67249765 8.34375 2.703125 C5.4990324 1.84970972 2.95137235 1.76699692 0 2 C0 1.34 0 0.68 0 0 Z " fill="#A29D9D" transform="translate(371,230)"/>
<path d="M0 0 C3 1 3 1 4.1875 3.0625 C4.455625 3.701875 4.72375 4.34125 5 5 C5.66 3.35 6.32 1.7 7 0 C7.66 0 8.32 0 9 0 C8.54636829 1.58468677 8.08688548 3.16769924 7.625 4.75 C7.36976563 5.63171875 7.11453125 6.5134375 6.8515625 7.421875 C6.0790066 9.76080572 5.16374324 11.83442562 4 14 C3.01 14 2.02 14 1 14 C1 13.34 1 12.68 1 12 C1.66 12 2.32 12 3 12 C2.690625 10.7625 2.38125 9.525 2.0625 8.25 C1.375 5.5 0.6875 2.75 0 0 Z " fill="#2DA9BF" transform="translate(216,283)"/>
<path d="M0 0 C6.6 0.33 13.2 0.66 20 1 C16.44398686 3.37067542 13.82041789 4.17647109 9.625 4.3125 C8.49964844 4.36857422 8.49964844 4.36857422 7.3515625 4.42578125 C5 4 5 4 0 0 Z " fill="#722F1E" transform="translate(116,249)"/>
<path d="M0 0 C2.31 0.33 4.62 0.66 7 1 C6.67 2.65 6.34 4.3 6 6 C2.04 6 -1.92 6 -6 6 C-6.33 6.99 -6.66 7.98 -7 9 C-7 7.68 -7 6.36 -7 5 C-4.69 5 -2.38 5 0 5 C0 3.35 0 1.7 0 0 Z " fill="#B1ADAD" transform="translate(362,271)"/>
<path d="M0 0 C0.33 0 0.66 0 1 0 C1.12117188 0.60328125 1.24234375 1.2065625 1.3671875 1.828125 C1.53476563 2.62734375 1.70234375 3.4265625 1.875 4.25 C2.03742188 5.03890625 2.19984375 5.8278125 2.3671875 6.640625 C2.99150075 8.96831144 3.84838542 10.89031952 5 13 C2.0625 12.625 2.0625 12.625 -1 12 C-2.11445498 9.77109005 -2.16480286 8.46944894 -2.1875 6 C-2.20167969 5.29875 -2.21585937 4.5975 -2.23046875 3.875 C-2 2 -2 2 0 0 Z " fill="#360D11" transform="translate(126,232)"/>
<path d="M0 0 C0.33 0.66 0.66 1.32 1 2 C3.97 2 6.94 2 10 2 C10.33 1.34 10.66 0.68 11 0 C10.625 1.9375 10.625 1.9375 10 4 C9.01 4.495 9.01 4.495 8 5 C8 5.66 8 6.32 8 7 C5.36 6.67 2.72 6.34 0 6 C0 4.02 0 2.04 0 0 Z " fill="#725F35" transform="translate(113,230)"/>
<path d="M0 0 C-0.66 0.66 -1.32 1.32 -2 2 C-1.67 2.66 -1.34 3.32 -1 4 C-1.24709571 6.05061033 -1.56992504 8.09252671 -1.9375 10.125 C-2.13214844 11.22070312 -2.32679688 12.31640625 -2.52734375 13.4453125 C-2.76130859 14.70988281 -2.76130859 14.70988281 -3 16 C-3.33 16 -3.66 16 -4 16 C-4 12.37 -4 8.74 -4 5 C-5.32 4.34 -6.64 3.68 -8 3 C-7.67 2.01 -7.34 1.02 -7 0 C-3.86650268 -1.04449911 -3.01031744 -0.93423645 0 0 Z " fill="#693A41" transform="translate(139,225)"/>
<path d="M0 0 C0 0.99 0 1.98 0 3 C-5.70690634 3.99250545 -11.21408489 4.10477512 -17 4 C-11.50750005 -0.30399681 -6.76606575 -0.11467908 0 0 Z " fill="#622F33" transform="translate(167,227)"/>
<path d="M0 0 C0.66 0 1.32 0 2 0 C2 3.96 2 7.92 2 12 C4.31 12 6.62 12 9 12 C9 12.66 9 13.32 9 14 C6.03 14 3.06 14 0 14 C0 9.38 0 4.76 0 0 Z " fill="#22A4BC" transform="translate(180,279)"/>
<path d="M0 0 C-3.04764329 2.56491965 -5.72457897 3.72655439 -9.5625 4.75 C-10.98755859 5.14445312 -10.98755859 5.14445312 -12.44140625 5.546875 C-15 6 -15 6 -18 5 C-17.34 5 -16.68 5 -16 5 C-16 4.34 -16 3.68 -16 3 C-10.28264895 0.54970669 -6.20970773 -0.33266291 0 0 Z " fill="#5D474B" transform="translate(152,267)"/>
<path d="M0 0 C0.99 0 1.98 0 3 0 C3 1.98 3 3.96 3 6 C0.03 6 -2.94 6 -6 6 C-6.33 4.68 -6.66 3.36 -7 2 C-4.36 2.33 -1.72 2.66 1 3 C0.67 2.01 0.34 1.02 0 0 Z " fill="#5A4926" transform="translate(120,234)"/>
<path d="M0 0 C2.31 0.33 4.62 0.66 7 1 C6.67 2.32 6.34 3.64 6 5 C4.68 4.34 3.36 3.68 2 3 C1.87625 4.299375 1.7525 5.59875 1.625 6.9375 C1.4140625 9.15234375 1.4140625 9.15234375 1 11 C0.01 11.495 0.01 11.495 -1 12 C-1.02698189 10.37509046 -1.04638757 8.75005367 -1.0625 7.125 C-1.07410156 6.22007812 -1.08570312 5.31515625 -1.09765625 4.3828125 C-1 2 -1 2 0 0 Z " fill="#52272C" transform="translate(107,225)"/>
<path d="M0 0 C0.33 0 0.66 0 1 0 C1.33266291 6.20970773 0.45029331 10.28264895 -2 16 C-2.99 15.67 -3.98 15.34 -5 15 C-4.34 15 -3.68 15 -3 15 C-3.0928125 13.2365625 -3.0928125 13.2365625 -3.1875 11.4375 C-3.21144173 6.96039699 -1.9879056 3.9758112 0 0 Z " fill="#734A4D" transform="translate(141,227)"/>
<path d="M0 0 C1.98 0 3.96 0 6 0 C4.52307692 5.66153846 4.52307692 5.66153846 1.875 7.375 C0.946875 7.684375 0.946875 7.684375 0 8 C0 5.36 0 2.72 0 0 Z " fill="#E9E8E8" transform="translate(348,259)"/>
<path d="M0 0 C0.99 0.495 0.99 0.495 2 1 C4.37402501 1.07116382 6.75000677 1.08409085 9.125 1.0625 C10.40632812 1.05347656 11.68765625 1.04445312 13.0078125 1.03515625 C13.99523437 1.02355469 14.98265625 1.01195312 16 1 C14.3655205 2.96446905 13.53570606 3.92317791 10.95703125 4.29296875 C8.97135417 4.1953125 6.98567708 4.09765625 5 4 C4.67 4.66 4.34 5.32 4 6 C2.62437146 4.71034824 1.29233607 3.37310707 0 2 C0 1.34 0 0.68 0 0 Z " fill="#8C5951" transform="translate(119,251)"/>
<path d="M0 0 C4.59306496 1.4859916 7.43569245 3.85014682 11 7 C10.67 7.66 10.34 8.32 10 9 C4.98709528 7.56774151 3.01961382 5.05490999 0 1 C0 0.67 0 0.34 0 0 Z " fill="#685755" transform="translate(114,281)"/>
<path d="M0 0 C1.0209375 0.7425 1.0209375 0.7425 2.0625 1.5 C4.99763137 3.27949846 4.99763137 3.27949846 8.6875 3 C9.780625 3 10.87375 3 12 3 C12.99 4.485 12.99 4.485 14 6 C11.89551062 5.85890014 9.7914123 5.71195825 7.6875 5.5625 C6.51574219 5.48128906 5.34398438 5.40007812 4.13671875 5.31640625 C1 5 1 5 -2 4 C-2 3.34 -2 2.68 -2 2 C-1.34 2 -0.68 2 0 2 C0 1.34 0 0.68 0 0 Z " fill="#3F1A11" transform="translate(115,241)"/>
<path d="M0 0 C1.32 0 2.64 0 4 0 C4 2.64 4 5.28 4 8 C2.68 8 1.36 8 0 8 C0 5.36 0 2.72 0 0 Z " fill="#F6F5F5" transform="translate(364,226)"/>
<path d="M0 0 C0.99 0.66 1.98 1.32 3 2 C3.1875 5.125 3.1875 5.125 3 8 C2.67 6.68 2.34 5.36 2 4 C-1.63 4.33 -5.26 4.66 -9 5 C-6 3 -6 3 -3 3 C-3 2.34 -3 1.68 -3 1 C-2.01 0.67 -1.02 0.34 0 0 Z " fill="#B18B88" transform="translate(185,239)"/>
<path d="M0 0 C1.26026798 2.52053595 0.91874445 3.8542098 0.5625 6.625 C0.46066406 7.44226563 0.35882813 8.25953125 0.25390625 9.1015625 C0.17011719 9.72804687 0.08632813 10.35453125 0 11 C0.66 11.33 1.32 11.66 2 12 C1.01 12.66 0.02 13.32 -1 14 C-1 11.36 -1 8.72 -1 6 C-2.98 6 -4.96 6 -7 6 C-7 5.67 -7 5.34 -7 5 C-5.02 5 -3.04 5 -1 5 C-1 4.34 -1 3.68 -1 3 C-2.65 3 -4.3 3 -6 3 C-6 2.67 -6 2.34 -6 2 C-4.02 1.34 -2.04 0.68 0 0 Z " fill="#7D7777" transform="translate(369,220)"/>
<path d="M0 0 C2.64 0 5.28 0 8 0 C7.01 1.485 7.01 1.485 6 3 C6.33 3.66 6.66 4.32 7 5 C6.01 5.33 5.02 5.66 4 6 C3.67 5.34 3.34 4.68 3 4 C0.47266765 3.34444881 0.47266765 3.34444881 -2 3 C-1.34 2.67 -0.68 2.34 0 2 C0 1.34 0 0.68 0 0 Z " fill="#5A4E30" transform="translate(120,223)"/>
<path d="M0 0 C3.93673644 1.31224548 6.22719294 2.91910327 9 6 C8.67 6.99 8.34 7.98 8 9 C6.66079162 7.88200014 5.32877444 6.75538103 4 5.625 C2.88625 4.68527344 2.88625 4.68527344 1.75 3.7265625 C1.1725 3.15679687 0.595 2.58703125 0 2 C0 1.34 0 0.68 0 0 Z " fill="#736562" transform="translate(106,275)"/>
<path d="M0 0 C-0.33 0.99 -0.66 1.98 -1 3 C-3.06640625 3.73046875 -3.06640625 3.73046875 -5.5625 4.1875 C-6.38878906 4.34605469 -7.21507812 4.50460937 -8.06640625 4.66796875 C-9.02353516 4.83232422 -9.02353516 4.83232422 -10 5 C-10 4.01 -10 3.02 -10 2 C-8.71211992 1.46987262 -7.41953322 0.9511671 -6.125 0.4375 C-5.40570313 0.14746094 -4.68640625 -0.14257812 -3.9453125 -0.44140625 C-2 -1 -2 -1 0 0 Z " fill="#655051" transform="translate(137,276)"/>
<path d="M0 0 C-2.75342006 2.75342006 -5.22412319 3.21878411 -9 4 C-11.4375 3.125 -11.4375 3.125 -13 2 C-4.738041 -1.62870159 -4.738041 -1.62870159 0 0 Z " fill="#736063" transform="translate(166,264)"/>
<path d="M0 0 C2.0625 0.4375 2.0625 0.4375 4 1 C4.33 2.32 4.66 3.64 5 5 C3.02 5 1.04 5 -1 5 C-1 1 -1 1 0 0 Z " fill="#93D2DE" transform="translate(229,282)"/>
<path d="M0 0 C0.99 0.33 1.98 0.66 3 1 C2.67 1.66 2.34 2.32 2 3 C1.34 3 0.68 3 0 3 C0 6.3 0 9.6 0 13 C-2.35333796 8.29332409 -2.17102038 6.1306114 -2 1 C-1.34 0.67 -0.68 0.34 0 0 Z " fill="#47292B" transform="translate(127,275)"/>
<path d="M0 0 C0 0.66 0 1.32 0 2 C-0.66 2 -1.32 2 -2 2 C-2 2.99 -2 3.98 -2 5 C-3.051875 4.7525 -3.051875 4.7525 -4.125 4.5 C-7.13888194 3.97584662 -9.94713625 3.92900317 -13 4 C-8.93662608 1.29108405 -4.89951609 0 0 0 Z " fill="#704741" transform="translate(186,252)"/>
<path d="M0 0 C0 0.66 0 1.32 0 2 C-0.99 2.495 -0.99 2.495 -2 3 C-2.46523063 4.89533342 -2.46523063 4.89533342 -2.625 7.0625 C-2.74875 8.361875 -2.8725 9.66125 -3 11 C-3.66 11 -4.32 11 -5 11 C-5 7.7 -5 4.4 -5 1 C-2 0 -2 0 0 0 Z " fill="#1EA2BB" transform="translate(243,282)"/>
<path d="M0 0 C0 0.66 0 1.32 0 2 C-2.64 2.99 -5.28 3.98 -8 5 C-8.33 3.68 -8.66 2.36 -9 1 C-6.04335481 -0.4783226 -3.25770263 -0.06032783 0 0 Z " fill="#594143" transform="translate(154,278)"/>
<path d="M0 0 C0 0.99 0 1.98 0 3 C-4.455 3.495 -4.455 3.495 -9 4 C-8.67 3.34 -8.34 2.68 -8 2 C-7.34 2 -6.68 2 -6 2 C-6 1.34 -6 0.68 -6 0 C-3 -1 -3 -1 0 0 Z " fill="#67382F" transform="translate(160,232)"/>
<path d="M0 0 C-4.47718792 2.98479194 -8.63824093 4 -14 4 C-14 3.34 -14 2.68 -14 2 C-9.15758367 0.66416101 -5.06562383 -0.25328119 0 0 Z " fill="#512325" transform="translate(160,230)"/>
<path d="M0 0 C2.64 0 5.28 0 8 0 C8.33 0.99 8.66 1.98 9 3 C6.03 3 3.06 3 0 3 C0 2.01 0 1.02 0 0 Z " fill="#E1D588" transform="translate(114,229)"/>
<path d="M0 0 C1.32 0 2.64 0 4 0 C4 2.31 4 4.62 4 7 C3.01 7 2.02 7 1 7 C0.67 4.69 0.34 2.38 0 0 Z " fill="#E1DFDF" transform="translate(336,222)"/>
<path d="M0 0 C0.33 0 0.66 0 1 0 C1 4.29 1 8.58 1 13 C2.32 13.33 3.64 13.66 5 14 C0.545 14.495 0.545 14.495 -4 15 C-3.01 14.34 -2.02 13.68 -1 13 C-0.41407366 9.88389446 -0.41407366 9.88389446 -0.3125 6.375 C-0.21388672 4.59222656 -0.21388672 4.59222656 -0.11328125 2.7734375 C-0.05720703 1.40058594 -0.05720703 1.40058594 0 0 Z " fill="#59261B" transform="translate(125,257)"/>
<path d="M0 0 C0.33 0 0.66 0 1 0 C1.66 3.63 2.32 7.26 3 11 C1.68 10.67 0.36 10.34 -1 10 C-1.02689216 8.52093108 -1.04634621 7.04172517 -1.0625 5.5625 C-1.07410156 4.73878906 -1.08570312 3.91507813 -1.09765625 3.06640625 C-1 1 -1 1 0 0 Z " fill="#310D10" transform="translate(112,232)"/>
<path d="M0 0 C2.64 0 5.28 0 8 0 C8 0.66 8 1.32 8 2 C5 4 5 4 2.875 3.8125 C2.25625 3.544375 1.6375 3.27625 1 3 C0.67 2.01 0.34 1.02 0 0 Z " fill="#CDEAF0" transform="translate(228,288)"/>
<path d="M0 0 C2.16874252 0.50603992 3.99967627 0.99983813 6 2 C6 3.65 6 5.3 6 7 C1.2 4.53846154 1.2 4.53846154 0.1875 1.8125 C0.125625 1.214375 0.06375 0.61625 0 0 Z " fill="#89726C" transform="translate(93,252)"/>
<path d="M0 0 C0.66 0 1.32 0 2 0 C2 2.64 2 5.28 2 8 C-0.97 7.01 -3.94 6.02 -7 5 C-7 4.67 -7 4.34 -7 4 C-5.02 4 -3.04 4 -1 4 C-0.67 2.68 -0.34 1.36 0 0 Z " fill="#999494" transform="translate(362,226)"/>
<path d="M0 0 C1.98 0 3.96 0 6 0 C5.67 1.32 5.34 2.64 5 4 C3.68 4 2.36 4 1 4 C0.34 3.34 -0.32 2.68 -1 2 C-0.67 1.34 -0.34 0.68 0 0 Z " fill="#72474F" transform="translate(109,222)"/>
<path d="M0 0 C2.31 0 4.62 0 7 0 C6.34 0.66 5.68 1.32 5 2 C4.01 2 3.02 2 2 2 C2 2.66 2 3.32 2 4 C-0.31 3.67 -2.62 3.34 -5 3 C-5 2.67 -5 2.34 -5 2 C-3.35 2 -1.7 2 0 2 C0 1.34 0 0.68 0 0 Z " fill="#4B2A29" transform="translate(159,260)"/>
<path d="M0 0 C2 2 2 2 2.125 5.625 C2.08375 6.73875 2.0425 7.8525 2 9 C1.67 8.01 1.34 7.02 1 6 C-1.97 5.505 -1.97 5.505 -5 5 C-4.34 4.34 -3.68 3.68 -3 3 C-2.01 3 -1.02 3 0 3 C0 2.01 0 1.02 0 0 Z " fill="#A39798" transform="translate(184,254)"/>
<path d="M0 0 C2.5 1.1875 2.5 1.1875 4.5 3.1875 C3.51 3.6825 3.51 3.6825 2.5 4.1875 C1.84 3.8575 1.18 3.5275 0.5 3.1875 C0.17 3.8475 -0.16 4.5075 -0.5 5.1875 C-0.933125 4.2284375 -0.933125 4.2284375 -1.375 3.25 C-2.32823451 1.03543921 -2.32823451 1.03543921 -4.5 0.1875 C-2.5 -0.8125 -2.5 -0.8125 0 0 Z " fill="#80675F" transform="translate(101.5,255.8125)"/>
<path d="M0 0 C1.32 0.99 2.64 1.98 4 3 C4 3.99 4 4.98 4 6 C3.01 6 2.02 6 1 6 C0.67 7.32 0.34 8.64 0 10 C0 6.7 0 3.4 0 0 Z " fill="#624246" transform="translate(128,228)"/>
<path d="M0 0 C2.31 0 4.62 0 7 0 C7.33 1.32 7.66 2.64 8 4 C3.545 3.01 3.545 3.01 -1 2 C-0.67 1.34 -0.34 0.68 0 0 Z " fill="#4B3E1E" transform="translate(116,226)"/>
<path d="M0 0 C0.66 0 1.32 0 2 0 C1.745504 1.48206495 1.47088238 2.96068615 1.1875 4.4375 C1.03667969 5.26121094 0.88585937 6.08492188 0.73046875 6.93359375 C0.48941406 7.61550781 0.24835938 8.29742187 0 9 C-0.99 9.33 -1.98 9.66 -3 10 C-2.21302675 6.58978257 -1.12880057 3.31114834 0 0 Z " fill="#1EA3BB" transform="translate(213,283)"/>
<path d="M0 0 C-3.08559304 2.26881841 -4.42209376 3.05451946 -8.3125 2.6875 C-9.199375 2.460625 -10.08625 2.23375 -11 2 C-7.50078951 0.05599417 -3.80583038 -1.90291519 0 0 Z " fill="#593C3F" transform="translate(150,270)"/>
<path d="M0 0 C0 0.66 0 1.32 0 2 C-2.8125 2.625 -2.8125 2.625 -6 3 C-6.99 2.34 -7.98 1.68 -9 1 C-5.64919071 -1.10976881 -3.77897651 -1.0497157 0 0 Z " fill="#948789" transform="translate(182,259)"/>
<path d="M0 0 C0.99 0.66 1.98 1.32 3 2 C2.67 3.32 2.34 4.64 2 6 C0.35 5.01 -1.3 4.02 -3 3 C-2.01 2.01 -1.02 1.02 0 0 Z " fill="#632B1F" transform="translate(107,240)"/>
<path d="M0 0 C-1.98 0.99 -1.98 0.99 -4 2 C-4 2.99 -4 3.98 -4 5 C-5.32 4.34 -6.64 3.68 -8 3 C-7.67 2.01 -7.34 1.02 -7 0 C-3.86650268 -1.04449911 -3.01031744 -0.93423645 0 0 Z " fill="#612B32" transform="translate(139,225)"/>
<path d="M0 0 C-3.63423209 2.32590854 -6.77088331 2.16265833 -11 2 C-7.374967 -1.625033 -4.81746234 -1.01907857 0 0 Z " fill="#A67B77" transform="translate(179,244)"/>
<path d="M0 0 C-2.40820361 2.40820361 -3.65022937 2.68097423 -7 3 C-9.3125 2.0625 -9.3125 2.0625 -11 1 C-7.32589215 -0.17571451 -3.83070817 -0.07366746 0 0 Z " fill="#8B5147" transform="translate(155,250)"/>
<path d="M0 0 C1.32 0 2.64 0 4 0 C4 0.99 4 1.98 4 3 C2.35 3.33 0.7 3.66 -1 4 C-0.67 2.68 -0.34 1.36 0 0 Z " fill="#D7EEF3" transform="translate(194,288)"/>
<path d="M0 0 C2.4375 0.8125 2.4375 0.8125 5 2 C5.33 2.99 5.66 3.98 6 5 C6.66 5 7.32 5 8 5 C7.67 5.66 7.34 6.32 7 7 C3.42895561 5.12050295 1.45255699 3.82946843 0 0 Z " fill="#5E4643" transform="translate(115,267)"/>
<path d="M0 0 C0.66 0.66 1.32 1.32 2 2 C1.01 3.485 1.01 3.485 0 5 C-1.32 4.67 -2.64 4.34 -4 4 C-4 3.01 -4 2.02 -4 1 C-2.125 0.375 -2.125 0.375 0 0 Z " fill="#62281E" transform="translate(142,244)"/>
</svg>
